<svg width="28" height="28" viewBox="0 0 28 28" fill="none" xmlns="http://www.w3.org/2000/svg">
<path d="M0 8C0 3.58172 3.58172 0 8 0H20C24.4183 0 28 3.58172 28 8V20C28 24.4183 24.4183 28 20 28H0V8Z" fill="#00533B"/>
<path d="M14 21.5264L12.8105 20.4436C8.58594 16.6127 5.79688 14.0861 5.79688 10.9854C5.79688 8.45879 7.78203 6.47363 10.3086 6.47363C11.7359 6.47363 13.1059 7.13809 14 8.18809C14.8941 7.13809 16.2641 6.47363 17.6914 6.47363C20.218 6.47363 22.2031 8.45879 22.2031 10.9854C22.2031 14.0861 19.4141 16.6127 15.1895 20.4518L14 21.5264Z" fill="white"/>
</svg>
