<svg width="183" height="28" viewBox="0 0 183 28" fill="none" xmlns="http://www.w3.org/2000/svg">
<path d="M0 8C0 3.58172 3.58172 0 8 0H20C24.4183 0 28 3.58172 28 8V20C28 24.4183 24.4183 28 20 28H0V8Z" fill="#00533B"/>
<path d="M14 21.5264L12.8105 20.4436C8.58594 16.6127 5.79688 14.0861 5.79688 10.9854C5.79688 8.45879 7.78203 6.47363 10.3086 6.47363C11.7359 6.47363 13.1059 7.13809 14 8.18809C14.8941 7.13809 16.2641 6.47363 17.6914 6.47363C20.218 6.47363 22.2031 8.45879 22.2031 10.9854C22.2031 14.0861 19.4141 16.6127 15.1895 20.4518L14 21.5264Z" fill="white"/>
<path d="M57.207 25H52.9824V16.373H45.0664V25H40.8281V5.01172H45.0664V12.8457H52.9824V5.01172H57.207V25ZM68.2676 12.3945C67.3835 12.3945 66.6908 12.6771 66.1895 13.2422C65.6882 13.7982 65.401 14.5911 65.3281 15.6211H71.1797C71.1615 14.5911 70.8926 13.7982 70.373 13.2422C69.8535 12.6771 69.1517 12.3945 68.2676 12.3945ZM68.8555 25.2734C66.3945 25.2734 64.4714 24.5944 63.0859 23.2363C61.7005 21.8783 61.0078 19.9551 61.0078 17.4668C61.0078 14.9056 61.6458 12.9277 62.9219 11.5332C64.207 10.1296 65.9798 9.42773 68.2402 9.42773C70.4004 9.42773 72.082 10.043 73.2852 11.2734C74.4883 12.5039 75.0898 14.2038 75.0898 16.373V18.3965H65.2324C65.278 19.5814 65.6289 20.5065 66.2852 21.1719C66.9414 21.8372 67.862 22.1699 69.0469 22.1699C69.9674 22.1699 70.8379 22.0742 71.6582 21.8828C72.4785 21.6914 73.3353 21.3861 74.2285 20.9668V24.1934C73.4993 24.5579 72.7201 24.8268 71.8906 25C71.0612 25.1823 70.0495 25.2734 68.8555 25.2734ZM88.1875 25L87.3809 22.9219H87.2715C86.5697 23.806 85.8451 24.4212 85.0977 24.7676C84.3594 25.1048 83.3932 25.2734 82.1992 25.2734C80.7318 25.2734 79.5742 24.8542 78.7266 24.0156C77.888 23.1771 77.4688 21.9831 77.4688 20.4336C77.4688 18.8112 78.0339 17.6172 79.1641 16.8516C80.3034 16.0768 82.0169 15.6484 84.3047 15.5664L86.957 15.4844V14.8145C86.957 13.265 86.1641 12.4902 84.5781 12.4902C83.3568 12.4902 81.9212 12.8594 80.2715 13.5977L78.8906 10.7812C80.6497 9.86068 82.6003 9.40039 84.7422 9.40039C86.793 9.40039 88.3652 9.84701 89.459 10.7402C90.5527 11.6335 91.0996 12.9915 91.0996 14.8145V25H88.1875ZM86.957 17.918L85.3438 17.9727C84.1315 18.0091 83.2292 18.2279 82.6367 18.6289C82.0443 19.0299 81.748 19.6406 81.748 20.4609C81.748 21.6367 82.4225 22.2246 83.7715 22.2246C84.7376 22.2246 85.5078 21.9466 86.082 21.3906C86.6654 20.8346 86.957 20.0964 86.957 19.1758V17.918ZM99.5762 25H95.4062V3.72656H99.5762V25ZM110.404 21.9512C111.133 21.9512 112.008 21.7917 113.029 21.4727V24.5762C111.99 25.041 110.714 25.2734 109.201 25.2734C107.533 25.2734 106.316 24.8542 105.551 24.0156C104.794 23.168 104.416 21.901 104.416 20.2148V12.8457H102.42V11.082L104.717 9.6875L105.92 6.46094H108.586V9.71484H112.865V12.8457H108.586V20.2148C108.586 20.8073 108.75 21.2448 109.078 21.5273C109.415 21.8099 109.857 21.9512 110.404 21.9512ZM130.242 25H126.072V16.0723C126.072 13.8665 125.252 12.7637 123.611 12.7637C122.445 12.7637 121.602 13.1602 121.082 13.9531C120.562 14.7461 120.303 16.0312 120.303 17.8086V25H116.133V3.72656H120.303V8.06055C120.303 8.39779 120.271 9.19076 120.207 10.4395L120.111 11.6699H120.33C121.26 10.1751 122.736 9.42773 124.76 9.42773C126.555 9.42773 127.918 9.91081 128.848 10.877C129.777 11.8431 130.242 13.2285 130.242 15.0332V25ZM146.375 14.418H147.77C149.073 14.418 150.048 14.1628 150.695 13.6523C151.342 13.1328 151.666 12.3809 151.666 11.3965C151.666 10.403 151.393 9.66927 150.846 9.19531C150.308 8.72135 149.46 8.48438 148.303 8.48438H146.375V14.418ZM155.945 11.2461C155.945 13.3971 155.271 15.0423 153.922 16.1816C152.582 17.321 150.673 17.8906 148.193 17.8906H146.375V25H142.137V5.01172H148.521C150.946 5.01172 152.787 5.53581 154.045 6.58398C155.312 7.62305 155.945 9.17708 155.945 11.2461ZM169.098 25L168.291 22.9219H168.182C167.48 23.806 166.755 24.4212 166.008 24.7676C165.27 25.1048 164.303 25.2734 163.109 25.2734C161.642 25.2734 160.484 24.8542 159.637 24.0156C158.798 23.1771 158.379 21.9831 158.379 20.4336C158.379 18.8112 158.944 17.6172 160.074 16.8516C161.214 16.0768 162.927 15.6484 165.215 15.5664L167.867 15.4844V14.8145C167.867 13.265 167.074 12.4902 165.488 12.4902C164.267 12.4902 162.831 12.8594 161.182 13.5977L159.801 10.7812C161.56 9.86068 163.51 9.40039 165.652 9.40039C167.703 9.40039 169.275 9.84701 170.369 10.7402C171.463 11.6335 172.01 12.9915 172.01 14.8145V25H169.098ZM167.867 17.918L166.254 17.9727C165.042 18.0091 164.139 18.2279 163.547 18.6289C162.954 19.0299 162.658 19.6406 162.658 20.4609C162.658 21.6367 163.333 22.2246 164.682 22.2246C165.648 22.2246 166.418 21.9466 166.992 21.3906C167.576 20.8346 167.867 20.0964 167.867 19.1758V17.918ZM180.486 25H176.316V3.72656H180.486V25Z" fill="#00533B"/>
</svg>
